<?xml version="1.0" encoding="utf-8"?>
<!-- Generator: Adobe Illustrator 25.0.0, SVG Export Plug-In . SVG Version: 6.00 Build 0)  -->
<svg version="1.1" id="Layer_1" xmlns="http://www.w3.org/2000/svg" xmlns:xlink="http://www.w3.org/1999/xlink" x="0px" y="0px"
	 viewBox="0 0 500 500" style="enable-background:new 0 0 500 500;" xml:space="preserve">
<style type="text/css">
	.st0{fill:#FFFFFF;}
</style>
<g>
	<path class="st0" d="M250,202c-26.5,0-48,21.5-48,48.1s21.5,48,48,48v0c0,0,0.1,0,0.1,0c26.5,0,48-21.5,47.9-48
		C298,223.5,276.5,202,250,202z"/>
	<path class="st0" d="M362.4,165c-4.9-12.6-14.8-22.5-27.3-27.3c-5.1-2-12.7-4.4-26.8-5c-15.2-0.7-19.8-0.8-58.2-0.8l0,0
		c-38.5,0-43,0.2-58.2,0.9c-14,0.7-21.7,3-26.8,5c-12.6,4.8-22.5,14.8-27.4,27.3c-2,5.1-4.3,12.7-5,26.8
		c-0.7,15.2-0.8,19.8-0.8,58.2s0.1,43,0.8,58.2c0.7,14.1,3,21.7,5,26.8c4.8,12.6,14.8,22.5,27.3,27.4c5.1,2,12.7,4.4,26.8,5
		c15.2,0.7,19.8,0.8,58.2,0.8s43-0.1,58.2-0.8c14-0.7,21.7-3,26.8-5c12.6-4.8,22.5-14.8,27.4-27.3c2-5.1,4.4-12.7,5-26.8
		c0.7-15.2,0.8-19.8,0.8-58.2c0-38.5-0.2-43.1-0.8-58.2C366.7,177.7,364.4,170.1,362.4,165z M250,324c-40.9,0-74-33.1-74-74
		s33.1-74,74-74s74,33.1,74,74S290.9,324,250,324z M344.2,173c0,9.6-7.7,17.3-17.3,17.3c-9.6,0-17.3-7.7-17.3-17.3
		s7.7-17.3,17.3-17.3c0,0,0,0,0.1,0C336.6,155.8,344.3,163.5,344.2,173L344.2,173z"/>
	<path class="st0" d="M250,0C112.2,0,0,112.1,0,250s112.2,250,250,250s250-112.2,250-250S387.9,0,250,0z M393.3,309.4
		c-0.7,15.4-3.1,25.8-6.7,35c-7.5,19.4-22.8,34.7-42.2,42.2c-9.2,3.6-19.6,6-35,6.7c-15.4,0.7-20.3,0.9-59.4,0.9
		c-39.2,0-44.1-0.2-59.4-0.9c-15.4-0.7-25.8-3.1-35-6.7c-19.4-7.5-34.7-22.8-42.2-42.2c-3.6-9.2-6-19.6-6.7-35s-0.9-20.3-0.9-59.4
		s0.2-44.1,0.9-59.4c0.7-15.4,3.1-25.8,6.7-35c7.5-19.4,22.8-34.7,42.2-42.2c9.2-3.6,19.6-6,35-6.7c15.4-0.7,20.3-0.9,59.4-0.9v0
		c39.1,0,44.1,0.2,59.4,0.9c15.4,0.7,25.8,3.1,35,6.7c19.4,7.5,34.7,22.8,42.2,42.2c3.6,9.2,6,19.6,6.7,35
		c0.7,15.4,0.9,20.3,0.9,59.4C394.2,289.1,394,294,393.3,309.4z"/>
</g>
</svg>
