<svg id="Layer_1" data-name="Layer 1" xmlns="http://www.w3.org/2000/svg" viewBox="0 0 500 294.04"><defs><style>.cls-1{fill:#fff;}.cls-2{fill:#00adee;}</style></defs><path class="cls-1" d="M0,109.19v47.15H33.68V375.67H83.61V109.19Z" transform="translate(0 -102.97)"/><path class="cls-1" d="M289.37,258.68Q278.11,241.88,258,235.3v-1.47q15.6-5.47,26.87-21.38t11.28-38.94c0-13.38-3.07-25.41-9.2-36s-15.2-19-27.22-25.24S233.26,103,216.39,103q-37.11,0-59.82,19.92t-24.42,56.48h47.48q1.4-14.26,10.24-23.59t25.13-9.3c11.09,0,19.6,2.9,25.49,8.77s8.85,14,8.85,24.47q0,34.74-49.24,34.73h-10v42h10q27.71,0,40.92,9.52,11.16,8.07,12.85,25.08h46.27Q298.27,271.94,289.37,258.68ZM187.44,323.93q-10.92-10.76-11.62-28.68H128.66q1.4,40.59,26,61.42,23.31,19.71,59.68,20.74V334.65Q197.46,333.86,187.44,323.93Z" transform="translate(0 -102.97)"/><path class="cls-1" d="M332.88,109.91v43.87H451.45L394,291.09H442L500,147.92v-38Z" transform="translate(0 -102.97)"/><rect class="cls-2" y="288.26" width="500" height="5.78"/><path class="cls-1" d="M246.17,369.79a17.23,17.23,0,0,1-7.07-5.53,15.16,15.16,0,0,1-2.89-7.76h4.18a14.25,14.25,0,0,0,4.58,8.35q3.87,3.67,11.78,3.67a18.68,18.68,0,0,0,8.05-1.62,12.75,12.75,0,0,0,5.29-4.43,11.06,11.06,0,0,0,1.87-6.22,10.33,10.33,0,0,0-2.18-6.91,13.54,13.54,0,0,0-5.43-3.83,81.94,81.94,0,0,0-8.76-2.73,72.82,72.82,0,0,1-9.73-3.06,15.45,15.45,0,0,1-6.23-4.73q-2.53-3.19-2.53-8.74a13.66,13.66,0,0,1,2.36-7.79,15.9,15.9,0,0,1,6.71-5.58,23.28,23.28,0,0,1,10.05-2.05q8.26,0,13.33,3.92a15.16,15.16,0,0,1,6.05,9.63h-4.27a12.45,12.45,0,0,0-2.35-4.69,13.75,13.75,0,0,0-5.16-4,18.5,18.5,0,0,0-8-1.58,16.73,16.73,0,0,0-10.49,3.28,10.46,10.46,0,0,0-4.27,8.74,10.33,10.33,0,0,0,2.22,6.94,14,14,0,0,0,5.47,3.92,66.64,66.64,0,0,0,8.76,2.69,78.53,78.53,0,0,1,9.74,3.11,15.08,15.08,0,0,1,6.13,4.68c1.69,2.13,2.54,5,2.54,8.65a14.05,14.05,0,0,1-2.23,7.58,16.37,16.37,0,0,1-6.53,5.84,22.25,22.25,0,0,1-10.45,2.26A25.41,25.41,0,0,1,246.17,369.79Z" transform="translate(0 -102.97)"/><path class="cls-1" d="M293.92,328.3v30.59q0,5.12,1.95,7c1.31,1.28,3.62,1.91,6.94,1.91h5.42v3.41h-6q-6.31,0-9.29-2.85t-3-9.5V328.3h-7.29V325h7.29V313.22h4V325h14.31v3.32Z" transform="translate(0 -102.97)"/><path class="cls-1" d="M359.63,325v46.26h-4V361.19a15.55,15.55,0,0,1-6.8,8.05,21.26,21.26,0,0,1-10.9,2.77q-8.62,0-14.09-5.07t-5.47-15V325h3.91v26.67q0,8.27,4.36,12.65t11.83,4.39q7.81,0,12.49-4.77t4.67-14.15V325Z" transform="translate(0 -102.97)"/><path class="cls-1" d="M374.7,335.54a20.61,20.61,0,0,1,8.27-8.26,24.58,24.58,0,0,1,12-2.9,23,23,0,0,1,12.8,3.53,19.25,19.25,0,0,1,7.65,9.16V308.19h4v63.05h-4V359A19.18,19.18,0,0,1,408,368.3a22.52,22.52,0,0,1-13,3.62A24.38,24.38,0,0,1,383,369a20.77,20.77,0,0,1-8.27-8.35,27.9,27.9,0,0,1,0-25.09Zm38.15,1.83a18.3,18.3,0,0,0-7.16-7.15,20.5,20.5,0,0,0-10.14-2.52,21.14,21.14,0,0,0-10.31,2.43,17,17,0,0,0-6.94,7,25.12,25.12,0,0,0,0,21.81,17.31,17.31,0,0,0,7,7.08,21.06,21.06,0,0,0,10.27,2.47A20.74,20.74,0,0,0,405.73,366a17.82,17.82,0,0,0,7.16-7.16,21.78,21.78,0,0,0,2.58-10.77A21.37,21.37,0,0,0,412.85,337.37Z" transform="translate(0 -102.97)"/><path class="cls-1" d="M433.7,313.77a3.44,3.44,0,0,1,0-4.81,3.53,3.53,0,0,1,4.8,0,3.44,3.44,0,0,1,0,4.81,3.68,3.68,0,0,1-4.8,0ZM438.06,325v46.26h-4V325Z" transform="translate(0 -102.97)"/><path class="cls-1" d="M461.8,369a20.84,20.84,0,0,1-8.49-8.31,25.16,25.16,0,0,1-3.07-12.65,24.7,24.7,0,0,1,3.11-12.57,20.83,20.83,0,0,1,8.58-8.27,26.07,26.07,0,0,1,12.23-2.85,25.81,25.81,0,0,1,12.18,2.85,20.76,20.76,0,0,1,8.49,8.23,27.36,27.36,0,0,1,0,25.26,21.18,21.18,0,0,1-8.58,8.31A25.76,25.76,0,0,1,474,371.92,25.42,25.42,0,0,1,461.8,369Zm22-2.77a17.42,17.42,0,0,0,7.34-6.86,24.47,24.47,0,0,0,0-22.58,17.54,17.54,0,0,0-7.29-6.86,21.69,21.69,0,0,0-9.78-2.26,21.43,21.43,0,0,0-9.74,2.26,17.62,17.62,0,0,0-7.25,6.86,21.61,21.61,0,0,0-2.75,11.25A22,22,0,0,0,457,359.4a17.32,17.32,0,0,0,7.2,6.86,21.43,21.43,0,0,0,9.74,2.26A22,22,0,0,0,483.8,366.26Z" transform="translate(0 -102.97)"/></svg>