<?xml version="1.0" encoding="utf-8"?>
<!-- Generator: Adobe Illustrator 25.0.0, SVG Export Plug-In . SVG Version: 6.00 Build 0)  -->
<svg version="1.1" id="Layer_1" xmlns="http://www.w3.org/2000/svg" xmlns:xlink="http://www.w3.org/1999/xlink" x="0px" y="0px"
	 viewBox="0 0 500 500" style="enable-background:new 0 0 500 500;" xml:space="preserve">
<style type="text/css">
	.st0{fill:#FFFFFF;}
</style>
<g>
	<path class="st0" d="M252.8,121.3c-65.2,0-118.9,49.5-125.1,112.7c-0.4,4-0.6,8.1-0.6,12.1c0,26.3,8.4,51.9,23.9,73.2l-15.7,46.3
		l48.3-15.4c20.5,13.5,44.6,20.7,69.2,20.7v0c69.3,0,125.7-55.9,125.7-124.8c0-3.3-0.1-6.5-0.4-9.7
		C373.1,172,318.8,121.3,252.8,121.3z M326.1,297.5c-3,8.5-18,16.7-24.7,17.3s-6.8,5.5-44.1-9.1c-37.2-14.6-60.8-52.6-62.6-54.9
		c-1.4-1.8-9.4-12.3-13.1-25.2c-1.2-4-1.8-8.2-1.9-12.4c0-17.9,9.5-26.7,12.9-30.4c2.5-2.8,6-4.4,9.8-4.5c2.5,0,4.8,0.4,7,0.4
		s5.2-1.3,8.3,6c3.1,7.3,10.4,25.2,11.3,27c1.2,1.9,1.3,4.3,0.3,6.4c-0.7,1.5-1.5,2.9-2.3,4.3c-0.4,0.6-0.8,1.1-1.3,1.8
		c-1.9,2.1-3.7,4.5-5.5,6.4c-1.8,1.8-3.7,3.8-1.6,7.4c5.5,9.3,12.4,17.8,20.4,25.1c14,12.5,25.8,16.2,29.5,18.1s5.9,1.5,8-0.9
		c2.1-2.4,9.2-10.6,11.6-14.2c2.4-3.6,4.9-3,8.3-1.8c3.4,1.2,21.4,10,25.1,11.8c3.7,1.8,6.1,2.7,7,4.2
		C329.2,281.8,329.1,289,326.1,297.5z"/>
	<path class="st0" d="M250,0C112.2,0,0,112.1,0,250s112.2,250,250,250s250-112.2,250-250S387.9,0,250,0z M252.8,394.5
		c-25.3,0-50.1-6.3-72.3-18.5l-82.8,26.3l27-79.6c-14-23.1-21.5-49.6-21.4-76.7c0-2.2,0.1-4.3,0.1-6.5c3.5-79,69-141.9,149.4-141.9
		c81.4,0,147.4,64.4,149.5,144.6c0.1,1.3,0.1,2.5,0.1,3.8C402.3,328.1,335.4,394.5,252.8,394.5z"/>
</g>
</svg>
