<svg id="Capa_2" data-name="Capa 2" xmlns="http://www.w3.org/2000/svg" viewBox="0 0 100 100"><defs><style>.cls-1{fill:#fff;}</style></defs><title>facebook</title><path class="cls-1" d="M81.1,0H18.9A19,19,0,0,0,0,18.9V81.1A19,19,0,0,0,18.9,100H81.1A19,19,0,0,0,100,81.1V18.9A19,19,0,0,0,81.1,0ZM95.4,81.5A13.83,13.83,0,0,1,81.5,95.2H66V61.5c0-.7.1-1,.9-.9h10c1.4,0,1.9-.5,2-1.8.3-3.6.6-7.3.9-10.9.1-1.7-.5-2.2-2-2.2H66V37.8A2,2,0,0,1,67.4,36a6.47,6.47,0,0,1,3.9-.6,57.71,57.71,0,0,1,5.8.8c1.6.2,2.2-.1,2.5-1.7.6-3.6,1.2-7.3,1.9-10.9.3-1.6,0-2.3-1.6-2.5A69.68,69.68,0,0,0,72.1,20a93.5,93.5,0,0,0-10.6-.1A16.27,16.27,0,0,0,49,27.3a13.63,13.63,0,0,0-2.3,7.2c-.1,3.4-.1,6.9-.1,10.3,0,.8-.2,1-1.1,1H39.8c-1.6,0-2,.5-2,2V58.5c0,1.6.6,2.2,2.2,2.2h5.8c.6,0,.9.1.9.8-.1,11.2-.1,22.5-.1,33.8h-28A13.66,13.66,0,0,1,4.9,81.6V18.5A13.66,13.66,0,0,1,18.6,4.8H81.7A13.66,13.66,0,0,1,95.4,18.5v63Z"/></svg>