<svg id="Capa_2" data-name="Capa 2" xmlns="http://www.w3.org/2000/svg" viewBox="0 0 100 100"><defs><style>.cls-1{fill:#fff;}</style></defs><title>instagram</title><path class="cls-1" d="M49.7,76.91a26.82,26.82,0,1,1,.15,0Zm.24-46.85a19.84,19.84,0,1,0,19.68,20,1.61,1.61,0,0,0,0-.22A19.74,19.74,0,0,0,49.94,30.06Z" transform="translate(-0.15 0.1)"/><path class="cls-1" d="M83.62,22.15A6.22,6.22,0,1,1,77.18,16,6.35,6.35,0,0,1,83.62,22.15Z" transform="translate(-0.15 0.1)"/><path class="cls-1" d="M81.25-.1H19.05A19,19,0,0,0,.15,18.8V81a19,19,0,0,0,18.9,18.9h62.2A19,19,0,0,0,100.15,81V18.8A19,19,0,0,0,81.25-.1Zm14.3,81.5a13.83,13.83,0,0,1-13.9,13.7H66.15l-19.4.1h-28A13.67,13.67,0,0,1,5.05,81.58V18.4A13.67,13.67,0,0,1,18.67,4.7H81.85a13.67,13.67,0,0,1,13.7,13.62Z" transform="translate(-0.15 0.1)"/></svg>