<?xml version="1.0" encoding="utf-8"?>
<!-- Generator: Adobe Illustrator 22.0.0, SVG Export Plug-In . SVG Version: 6.00 Build 0)  -->
<svg version="1.1" id="Capa_3" xmlns="http://www.w3.org/2000/svg" xmlns:xlink="http://www.w3.org/1999/xlink" x="0px" y="0px"
	 viewBox="0 0 100 100" style="enable-background:new 0 0 100 100;" xml:space="preserve">
<style type="text/css">
	.st0{fill:#FFFFFF;}
</style>
<g>
	<path class="st0" d="M62.2,52.7H37.8c-10.8,0-18.9,11.1-18.9,20.9v12.8h62.2V73.6C81.1,63.8,73,52.7,62.2,52.7z"/>
	<path class="st0" d="M50,49.3c9.7,0,17.6-7.9,17.6-17.6S59.7,14.2,50,14.2s-17.6,7.9-17.6,17.6S40.3,49.3,50,49.3z"/>
	<path class="st0" d="M81.1,0H18.9C8.5,0,0,8.5,0,18.9v62.2C0,91.5,8.5,100,18.9,100h62.2c10.4,0,18.9-8.5,18.9-18.9V18.9
		C100,8.5,91.5,0,81.1,0z M95.2,81.5c0,7.6-6.1,13.7-13.7,13.7H18.5c-7.6,0-13.7-6.1-13.7-13.7V18.5c0-7.6,6.1-13.7,13.7-13.7h63.1
		c7.6,0,13.7,6.1,13.7,13.7V81.5z"/>
</g>
</svg>
