<svg id="Capa_6" data-name="Capa 6" xmlns="http://www.w3.org/2000/svg" viewBox="0 0 286.51 207.77"><defs><style>.cls-1{fill:#fff;}.cls-2{fill:#00aeef;}</style></defs><title>rotate</title><path class="cls-1" d="M278.22,112.07H104.59a15.42,15.42,0,0,0-15.42,15.41v67.13A15.42,15.42,0,0,0,104.59,210H278.22a15.43,15.43,0,0,0,15.42-15.41V127.48A15.43,15.43,0,0,0,278.22,112.07Zm-5.77,94.64H110.38V115.38H272.45Z" transform="translate(-7.13 -2.25)"/><path class="cls-1" d="M89.66,2.25H22.53A15.41,15.41,0,0,0,7.13,17.67V191.3a15.4,15.4,0,0,0,15.4,15.41H81.59v-21.2H10.43V23.44h91.33v81h3.31V17.67A15.42,15.42,0,0,0,89.66,2.25Z" transform="translate(-7.13 -2.25)"/><path class="cls-2" d="M180.1,82.55l-7.65,15.5-7.66-15.5H170c-.91-17-4.91-28.72-12.16-35.86-9.38-9.23-22.57-9-34.21-8.84-1.55,0-3,0-4.49,0v-5c1.42,0,2.88,0,4.4,0,12-.19,26.93-.43,37.8,10.27,8.22,8.09,12.7,21,13.67,39.43Z" transform="translate(-7.13 -2.25)"/></svg>