<?xml version="1.0" encoding="utf-8"?>
<!-- Generator: Adobe Illustrator 22.0.0, SVG Export Plug-In . SVG Version: 6.00 Build 0)  -->
<svg version="1.1" id="Capa_4" xmlns="http://www.w3.org/2000/svg" xmlns:xlink="http://www.w3.org/1999/xlink" x="0px" y="0px"
	 viewBox="0 0 100 100" style="enable-background:new 0 0 100 100;" xml:space="preserve">
<style type="text/css">
	.st0{fill:#FFFFFF;}
	.st1{fill:#2BACE2;}
</style>
<g>
	<polygon class="st0" points="9.6,32.5 3.3,32.5 3.3,23.7 18.9,23.7 18.9,73.5 9.6,73.5 	"/>
	<path class="st0" d="M27.3,58.5h8.8c0.1,2.2,0.8,4,2.2,5.4c1.2,1.2,2.9,1.9,5,2v8c-4.5-0.1-8.2-1.4-11.1-3.9
		C29.1,67.3,27.5,63.5,27.3,58.5z"/>
	<path class="st0" d="M53.7,71c0.2-0.3,0.3-0.7,0.3-1.1c0-0.5-0.1-1-0.4-1.3c-0.3-0.3-0.6-0.5-1-0.7c-0.4-0.2-1-0.3-1.6-0.5
		c-0.8-0.2-1.4-0.4-1.8-0.6c-0.5-0.2-0.9-0.5-1.2-0.9c-0.3-0.4-0.5-1-0.5-1.7c0-0.5,0.1-1,0.4-1.5c0.3-0.4,0.7-0.8,1.3-1.1
		c0.5-0.3,1.2-0.4,1.9-0.4c1,0,1.9,0.2,2.5,0.7c0.6,0.5,1,1.1,1.1,1.8l0,0.1h-0.9l0,0c-0.1-0.3-0.2-0.6-0.4-0.9
		c-0.2-0.3-0.5-0.5-0.9-0.7c-0.4-0.2-0.9-0.3-1.5-0.3c-0.8,0-1.4,0.2-1.9,0.6c-0.5,0.4-0.8,0.9-0.8,1.6c0,0.5,0.1,1,0.4,1.3
		c0.3,0.3,0.6,0.6,1,0.7c0.4,0.2,0.9,0.3,1.6,0.5c0.8,0.2,1.4,0.4,1.8,0.6c0.5,0.2,0.8,0.5,1.2,0.9c0.3,0.4,0.5,1,0.5,1.6
		c0,0.5-0.1,1-0.4,1.4c-0.3,0.5-0.7,0.8-1.2,1.1c-0.5,0.3-1.2,0.4-2,0.4c-0.8,0-1.4-0.1-2-0.4c-0.6-0.3-1-0.6-1.3-1.1
		c-0.3-0.4-0.5-0.9-0.5-1.5l0,0h0.9l0,0c0.1,0.6,0.4,1.1,0.8,1.5c0.5,0.4,1.2,0.7,2.2,0.7c0.6,0,1.1-0.1,1.5-0.3
		C53.2,71.6,53.5,71.3,53.7,71z"/>
	<path class="st0" d="M36.9,36.8H28c0.2-4.6,1.7-8.1,4.6-10.6c2.8-2.5,6.6-3.7,11.2-3.7c3.2,0,5.9,0.6,8.1,1.7
		c2.2,1.2,3.9,2.7,5.1,4.7c1.1,2,1.7,4.2,1.7,6.7c0,2.9-0.7,5.3-2.1,7.3c-1.4,2-3.1,3.3-5,4v0.3c2.5,0.8,4.5,2.3,5.9,4.4
		c1.1,1.7,1.8,3.7,2,6.1h-8.6c-0.2-2.1-1-3.7-2.4-4.7c-1.6-1.2-4.2-1.8-7.6-1.8h-1.9v-7.9h1.9c6.1,0,9.2-2.2,9.2-6.5
		c0-2-0.6-3.5-1.7-4.6c-1.1-1.1-2.7-1.6-4.8-1.6c-2,0-3.6,0.6-4.7,1.7C37.7,33.6,37,35,36.9,36.8z"/>
	<path class="st0" d="M58.3,64.7v5.7c0,0.6,0.1,1.1,0.3,1.3c0.2,0.2,0.7,0.3,1.3,0.3h1.1v0.7h-1.2c-0.8,0-1.4-0.2-1.8-0.5
		c-0.4-0.4-0.6-1-0.6-1.8v-5.7H56V64h1.4v-2.2h0.8V64h2.7v0.7H58.3z"/>
	<path class="st0" d="M63.8,71.9c-0.7-0.6-1-1.6-1-2.8V64h0.8v5c0,1,0.3,1.8,0.8,2.3c0.5,0.5,1.3,0.8,2.2,0.8c1,0,1.7-0.3,2.3-0.9
		c0.6-0.6,0.9-1.5,0.9-2.6V64h0.8v8.7h-0.8V71c-0.3,0.6-0.7,1-1.2,1.3c-0.6,0.3-1.3,0.5-2.1,0.5C65.3,72.8,64.4,72.5,63.8,71.9z"/>
	<path class="st0" d="M80.9,60.8V66c-0.3-0.6-0.7-1.1-1.4-1.5c-0.7-0.4-1.5-0.7-2.4-0.7c-0.8,0-1.6,0.2-2.3,0.5
		c-0.7,0.4-1.2,0.9-1.6,1.6c-0.4,0.7-0.6,1.5-0.6,2.4c0,0.9,0.2,1.7,0.6,2.4c0.4,0.7,0.9,1.2,1.6,1.6c0.7,0.4,1.4,0.6,2.3,0.6
		c1,0,1.8-0.2,2.5-0.7c0.6-0.4,1-0.9,1.3-1.5v2.1h0.8V60.8H80.9z M77.2,72.1c-0.7,0-1.3-0.2-1.9-0.5c-0.5-0.3-1-0.7-1.3-1.3
		c-0.3-0.6-0.5-1.2-0.5-2c0-0.8,0.2-1.4,0.5-2c0.3-0.6,0.7-1,1.3-1.3c0.5-0.3,1.2-0.4,1.9-0.4c0.7,0,1.3,0.2,1.9,0.5
		c0.6,0.3,1,0.8,1.3,1.3c0.3,0.6,0.5,1.2,0.5,2c0,0.8-0.2,1.4-0.5,2c-0.3,0.6-0.8,1-1.3,1.3C78.5,71.9,77.9,72.1,77.2,72.1z"/>
	<rect x="84.3" y="64" class="st0" width="0.8" height="8.7"/>
	<path class="st0" d="M85.2,62c-0.1,0.1-0.3,0.2-0.5,0.2c-0.2,0-0.3-0.1-0.5-0.2c-0.1-0.1-0.2-0.3-0.2-0.5c0-0.2,0.1-0.4,0.2-0.5
		c0.1-0.1,0.3-0.2,0.5-0.2c0.2,0,0.4,0.1,0.5,0.2c0.1,0.1,0.2,0.3,0.2,0.5C85.4,61.7,85.4,61.8,85.2,62z"/>
	<path class="st0" d="M95.8,65.9c-0.4-0.7-0.9-1.2-1.6-1.6c-0.7-0.4-1.5-0.5-2.3-0.5c-0.8,0-1.6,0.2-2.3,0.5
		c-0.7,0.4-1.2,0.9-1.6,1.6c-0.4,0.7-0.6,1.5-0.6,2.4c0,0.9,0.2,1.7,0.6,2.4c0.4,0.7,0.9,1.2,1.6,1.6c0.7,0.4,1.5,0.5,2.3,0.5
		c0.8,0,1.6-0.2,2.3-0.5c0.7-0.4,1.2-0.9,1.6-1.6c0.4-0.7,0.6-1.5,0.6-2.4S96.2,66.6,95.8,65.9z M91.8,72.1c-0.6,0-1.2-0.1-1.8-0.4
		c-0.5-0.3-1-0.7-1.3-1.3c-0.3-0.6-0.5-1.3-0.5-2.1c0-0.8,0.2-1.5,0.5-2.1c0.3-0.6,0.8-1,1.3-1.3c0.5-0.3,1.2-0.4,1.8-0.4
		c0.6,0,1.2,0.1,1.8,0.4c0.6,0.3,1,0.7,1.3,1.3c0.3,0.6,0.5,1.3,0.5,2.1c0,0.8-0.2,1.5-0.5,2.1c-0.3,0.6-0.8,1-1.3,1.3
		C93.1,71.9,92.5,72.1,91.8,72.1z"/>
	<polygon class="st0" points="87.6,32 65.5,32 65.5,23.8 96.7,23.8 96.7,30.9 85.9,57.7 76.9,57.7 	"/>
	<rect x="3.3" y="76.4" class="st1" width="93.4" height="1.1">
	  <animate attributeName="width" values="0.4;93.4;0.4" begin="0s" dur="6s" repeatCount="indefinite"/>
	</rect>
</g>
</svg>
