<?xml version="1.0" encoding="utf-8"?>
<!-- Generator: Adobe Illustrator 22.0.0, SVG Export Plug-In . SVG Version: 6.00 Build 0)  -->
<svg version="1.1" id="Capa_4" xmlns="http://www.w3.org/2000/svg" xmlns:xlink="http://www.w3.org/1999/xlink" x="0px" y="0px"
	 viewBox="0 0 90.6 90.7" style="enable-background:new 0 0 90.6 90.7;" xml:space="preserve">
<style type="text/css">
	.st0{fill:#FFFFFF;}
</style>
<path class="st0" d="M86.7,67.8c5.1,5.1,5.1,13.4,0,18.5l-0.6,0.6C81,92,72.8,92,67.6,86.9L45.3,64.4L22.9,86.9
	C17.8,92,9.5,92,4.4,86.9l-0.6-0.6c-5.1-5.1-5.1-13.4,0-18.5l22.4-22.4L3.8,22.9c-5.1-5.1-5.1-13.4,0-18.5l0.6-0.6
	c5.1-5.1,13.4-5.1,18.5,0l22.4,22.4L67.6,3.8c5.1-5.1,13.4-5.1,18.5,0l0.6,0.6c5.1,5.1,5.1,13.4,0,18.5L64.3,45.3L86.7,67.8z"/>
</svg>
